<?xml version="1.0" encoding="UTF-8" standalone="no"?>
<svg
   xmlns:dc="http://purl.org/dc/elements/1.1/"
   xmlns:cc="http://creativecommons.org/ns#"
   xmlns:rdf="http://www.w3.org/1999/02/22-rdf-syntax-ns#"
   xmlns:svg="http://www.w3.org/2000/svg"
   xmlns="http://www.w3.org/2000/svg"
   xmlns:sodipodi="http://sodipodi.sourceforge.net/DTD/sodipodi-0.dtd"
   xmlns:inkscape="http://www.inkscape.org/namespaces/inkscape"
   width="142.8"
   height="132.4"
   version="1.1"
   id="svg30"
   sodipodi:docname="exponent-2-3.svg"
   inkscape:version="1.0.2-2 (e86c870879, 2021-01-15)">
  <metadata
     id="metadata34">
    <rdf:RDF>
      <cc:Work
         rdf:about="">
        <dc:format>image/svg+xml</dc:format>
        <dc:type
           rdf:resource="http://purl.org/dc/dcmitype/StillImage" />
      </cc:Work>
    </rdf:RDF>
  </metadata>
  <sodipodi:namedview
     pagecolor="#ffffff"
     bordercolor="#666666"
     borderopacity="1"
     objecttolerance="10"
     gridtolerance="10"
     guidetolerance="10"
     inkscape:pageopacity="0"
     inkscape:pageshadow="2"
     inkscape:window-width="2560"
     inkscape:window-height="1490"
     id="namedview32"
     showgrid="false"
     inkscape:zoom="5.5513598"
     inkscape:cx="165.33136"
     inkscape:cy="26.357942"
     inkscape:window-x="-12"
     inkscape:window-y="-12"
     inkscape:window-maximized="1"
     inkscape:current-layer="g28" />
  <defs
     id="defs2" />
  <g
     transform="translate(588.3374,-594.12002)"
     id="g28">
    <text
       x="-560.29999"
       y="726.09998"
       transform="scale(1.0003571,0.99964302)"
       style="font-style:italic;font-size:21.7px;font-family:'Comic Sans MS';overflow:visible;fill:#4e9aff;stroke-width:1px"
       id="text4">底数</text>
    <g
       transform="matrix(0.37441865,0,0,0.37415141,-591.05051,483.07628)"
       id="g12">
      <path
         d="m 144.1,604.2 c 0.6,-1.1 1.2,-2.2 1.8,-3.3 1.1,-2.1 2.4,-4 3.7,-6 1.8,-2.9 4.1,-5.4 6.2,-8 2.6,-3 5.5,-5.7 8.4,-8.4 3.1,-2.9 6.5,-5.5 9.9,-8.1 3.5,-2.7 7.2,-5 11,-7.3 3.3,-2.1 6.8,-3.9 10.2,-5.8 2.9,-1.5 5.8,-3 8.7,-4.5 2.4,-1.2 4.8,-2.3 7.3,-3.4 1.7,-0.7 3.3,-1.4 5,-2.1 1,-0.4 2,-0.8 3,-1.3 l 7,2.5 c -1,0.4 -2,0.8 -3,1.3 -1.7,0.7 -3.3,1.4 -5,2.1 -2.4,1.1 -4.9,2.1 -7.2,3.2 -2.9,1.4 -5.8,2.9 -8.7,4.4 -3.4,1.8 -6.9,3.6 -10.2,5.6 -3.7,2.3 -7.4,4.5 -10.9,7.1 -3.4,2.5 -6.7,5 -9.8,7.8 -2.9,2.6 -5.7,5.2 -8.3,8.1 -2.1,2.5 -4.4,4.9 -6.2,7.6 -1.3,1.9 -2.6,3.7 -3.6,5.7 -0.6,1.1 -1.2,2.2 -1.8,3.3 l -7.4,-0.5 z"
         style="overflow:visible; fill:#4e9aff; stroke-width:6.8; stroke-linecap:round;"
         id="path6" />
      <path
         d="m 204.8,540.6 c 0.9,-0 1.9,0.2 2.8,0.3 1.1,0.3 2.1,0.6 3.1,0.8 1.2,0.3 2.4,0.4 3.6,0.6 1.2,0.2 2.4,0.4 3.6,0.6 0.8,0.2 1.6,0.3 2.4,0.5 0.7,0 1.3,0.3 1.9,0.4 0.7,0.2 1.4,0.4 2.1,0.5 0.6,0.2 1.1,0.3 1.7,0.5 0.4,0 0.7,0.2 1,0.3 0.2,0 0.4,0.1 0.6,0.2 l -5.8,4.7 c -0.2,-0 -0.3,-0.1 -0.5,-0.1 -0.3,-0 -0.7,-0.2 -1,-0.3 -0.5,-0.1 -1.1,-0.3 -1.6,-0.4 -0.7,-0.1 -1.3,-0.3 -2,-0.4 -0.6,-0.1 -1.3,-0.2 -1.9,-0.3 -0.8,-0.1 -1.6,-0.3 -2.4,-0.4 -1.2,-0.2 -2.4,-0.4 -3.5,-0.5 -1.3,-0.3 -2.6,-0.4 -3.8,-0.8 -1,-0.2 -1.9,-0.6 -2.9,-0.6 -0.9,-0 -1.8,-0 -2.7,-0.2 l 5.3,-5.2 z"
         style="overflow:visible; fill:#4e9aff; stroke-width:6.8; stroke-linecap:round;"
         id="path8" />
      <path
         d="m 209.9,562.1 c 0.4,-0.8 0.8,-1.6 1.2,-2.3 0.5,-1.1 1.2,-2 1.8,-3 0.7,-1.1 1.6,-2 2.4,-3.1 0.7,-0.8 1.4,-1.5 2.1,-2.3 0.5,-0.6 1.1,-1.2 1.7,-1.7 0.7,-0.7 1.4,-1.3 2.2,-2 0.6,-0.6 1.3,-1.1 2,-1.6 0.3,-0.2 0.5,-0.4 0.8,-0.6 l 7.2,2 c -0.2,0.1 -0.5,0.2 -0.7,0.4 -0.6,0.5 -1.3,0.9 -1.9,1.4 -0.7,0.6 -1.4,1.2 -2.1,1.8 -0.5,0.5 -1.1,1 -1.6,1.5 -0.7,0.7 -1.4,1.5 -2.1,2.2 -0.8,0.9 -1.6,1.7 -2.3,2.7 -0.6,0.9 -1.3,1.7 -1.8,2.7 -0.4,0.7 -0.8,1.4 -1.2,2.2 l -7.5,-0.2 z"
         style="overflow:visible; fill:#4e9aff; stroke-width:6.8; stroke-linecap:round;"
         id="path10" />
    </g>
    <g
       transform="matrix(0.00686354,-0.57089709,-0.37435576,-0.01046697,-298.40897,909.29955)"
       id="g20">
      <path
         d="m 478.2,442.9 c 1.4,0.2 2.8,0.5 4.3,0.8 2.1,0.4 4.1,1 6.1,1.5 2.3,0.6 4.5,1.6 6.7,2.5 2.2,0.9 4.3,2.2 6.3,3.3 2.2,1.3 4,3 5.8,4.6 1.9,1.8 3.6,3.6 5.4,5.5 1.7,1.7 3.1,3.7 4.6,5.5 1.5,1.9 2.4,4.2 3.5,6.3 1,2.2 1.7,4.5 2.6,6.8 0.8,2.2 1.1,4.6 1.6,6.9 0.3,2.5 0.3,5.1 0.4,7.7 0,2.5 -0,5.1 -0,7.6 -0,2.3 -0.2,4.5 -0.4,6.8 -0.1,1.6 -0.3,3.3 -0.4,4.9 -0,0.6 -0,1.1 -0.1,1.7 l -7.4,0.9 c 0,-0.6 0,-1.1 0.1,-1.7 0.1,-1.6 0.3,-3.3 0.4,-4.9 0.1,-2.2 0.3,-4.4 0.4,-6.6 0,-2.5 0.1,-5 0,-7.5 -0,-2.4 -0,-4.9 -0.3,-7.3 -0.4,-2.1 -0.7,-4.3 -1.4,-6.3 -0.8,-2.2 -1.5,-4.4 -2.5,-6.4 -1,-1.9 -1.9,-4 -3.2,-5.7 -1.4,-1.8 -2.8,-3.6 -4.5,-5.2 -1.7,-1.8 -3.4,-3.6 -5.3,-5.3 -1.8,-1.4 -3.5,-3 -5.5,-4.1 -2,-1 -4,-2.2 -6.1,-3 -2.1,-0.8 -4.2,-1.6 -6.4,-2.2 -2,-0.5 -3.9,-1 -5.9,-1.3 -1.4,-0.2 -2.7,-0.5 -4.1,-0.6 l 5.4,-5.2 z"
         style="overflow:visible; fill:#3465a4; stroke-width:6.8; stroke-linecap:round;"
         id="path14" />
      <path
         d="m 471.5,441 c 1.1,-0 2.1,-0.4 3.2,-0.6 -0.5,0 -6.8,1.9 -0.5,-0.1 1.8,-0.7 3.6,-1.3 5.4,-1.9 1.7,-0.6 3.4,-1.2 5.1,-1.8 1.4,-0.5 2.7,-1.1 4.1,-1.6 0.9,-0.3 1.7,-0.7 2.6,-1 0.5,-0.2 1,-0.4 1.6,-0.6 0,-0 0.1,-0 0.2,-0 l 7,2.5 c -0,0 -0.1,0 -0.2,0 -0.5,0.2 -1,0.4 -1.6,0.6 -0.9,0.3 -1.7,0.7 -2.6,1 -1.4,0.5 -2.7,1.1 -4.1,1.6 -1.7,0.7 -3.4,1.3 -5.1,1.9 -1.8,0.6 -3.6,1.2 -5.4,1.9 -3.6,1.3 -7.3,2.7 -11.1,3.3 -1.1,0.2 -2.2,0.3 -3.4,0.5 l 4.8,-5.7 z"
         style="overflow:visible; fill:#3465a4; stroke-width:6.8; stroke-linecap:round;"
         id="path16" />
      <path
         d="m 476.8,441.4 c 0.7,0.7 1.4,1.5 2,2.3 0.7,0.8 1.2,1.8 1.9,2.7 0.6,0.9 1.1,1.9 1.7,2.8 0.5,0.8 0.9,1.7 1.3,2.5 0.4,0.7 0.6,1.5 0.9,2.2 0.3,0.7 0.4,1.5 0.6,2.2 0.1,0.5 0.3,1 0.4,1.5 0.1,0.4 0.2,0.8 0.3,1.2 0,0.4 0.1,0.8 0.2,1.1 0,0.2 0,0.5 0,0.7 0,0.1 0,0.3 0,0.4 0,0 0,0.2 0,0.3 0,0 0,0.1 0,0.2 7.8e-4,0 0,0 0,0 l -7.3,1.5 c -7.7e-4,-0 -0,-0 -0,-0 -0,-0 -0,-0.1 -0,-0.2 -0,-0 -0,-0.2 -0,-0.3 -0,-0.1 -0,-0.3 -0,-0.4 -0,-0.2 -0,-0.5 -0,-0.7 -0,-0.3 -0,-0.7 -0.1,-1 -0,-0.3 -0.1,-0.6 -0.2,-1 -0.1,-0.5 -0.2,-1 -0.4,-1.5 -0.2,-0.6 -0.3,-1.3 -0.6,-1.9 -0.3,-0.6 -0.4,-1.2 -0.8,-1.8 -0.4,-0.8 -0.8,-1.6 -1.3,-2.4 -0.5,-0.9 -1,-1.8 -1.6,-2.6 -0.6,-0.8 -1.1,-1.6 -1.7,-2.3 -0.6,-0.6 -1.2,-1.4 -1.9,-1.9 l 6.5,-3.6 z"
         style="overflow:visible; fill:#3465a4; stroke-width:6.8; stroke-linecap:round;"
         id="path18" />
    </g>
    <text
       x="-514.71027"
       y="613.78516"
       transform="scale(1.0003571,0.99964302)"
       style="font-style:italic;font-size:21.7px;font-family:'Comic Sans MS';text-align:center;text-anchor:middle;overflow:visible;fill:#3465a4;stroke-width:1px"
       id="text22">指数</text>
    <text
       x="-503.2"
       y="694.5"
       style="font-family:'Comic Sans MS'; font-size:51.2px; color:black; overflow:visible; fill:#4e9aff; stroke-width:1px;"
       id="text24">2</text>
    <text
       x="-472.6"
       y="668.7"
       style="font-family:'Comic Sans MS'; font-size:35px; color:black; overflow:visible; fill:#3465a4; stroke-width:1px;"
       id="text26">3</text>
  </g>
</svg>
