<?xml version="1.0" encoding="UTF-8" standalone="no"?>
<svg
   xmlns:dc="http://purl.org/dc/elements/1.1/"
   xmlns:cc="http://creativecommons.org/ns#"
   xmlns:rdf="http://www.w3.org/1999/02/22-rdf-syntax-ns#"
   xmlns:svg="http://www.w3.org/2000/svg"
   xmlns="http://www.w3.org/2000/svg"
   xmlns:sodipodi="http://sodipodi.sourceforge.net/DTD/sodipodi-0.dtd"
   xmlns:inkscape="http://www.inkscape.org/namespaces/inkscape"
   width="424.4"
   height="86"
   version="1.1"
   id="svg106"
   sodipodi:docname="logarithm-concept.svg"
   inkscape:version="1.0.2-2 (e86c870879, 2021-01-15)">
  <metadata
     id="metadata110">
    <rdf:RDF>
      <cc:Work
         rdf:about="">
        <dc:format>image/svg+xml</dc:format>
        <dc:type
           rdf:resource="http://purl.org/dc/dcmitype/StillImage" />
      </cc:Work>
    </rdf:RDF>
  </metadata>
  <sodipodi:namedview
     pagecolor="#ffffff"
     bordercolor="#666666"
     borderopacity="1"
     objecttolerance="10"
     gridtolerance="10"
     guidetolerance="10"
     inkscape:pageopacity="0"
     inkscape:pageshadow="2"
     inkscape:window-width="2560"
     inkscape:window-height="1490"
     id="namedview108"
     showgrid="false"
     inkscape:zoom="3.7770971"
     inkscape:cx="212.2"
     inkscape:cy="-33.54438"
     inkscape:window-x="-12"
     inkscape:window-y="-12"
     inkscape:window-maximized="1"
     inkscape:current-layer="g104" />
  <defs
     id="defs64">
    <marker
       style="overflow:visible;"
       orient="auto"
       id="id01">
      <path
         d="M 0,0 5,-5 -12.5,0 5,5 0,0 Z"
         transform="matrix(-0.4,0,0,-0.4,-4,0)"
         style="fill:#edd400; stroke:#edd400; stroke-width:1pt;"
         id="path61" />
    </marker>
  </defs>
  <g
     transform="translate(264.62885,-199.80963)"
     id="g104">
    <rect
       x="-9.3"
       y="199.8"
       rx="25.9"
       ry="24.1"
       width="169.1"
       height="72.7"
       style="color:black; overflow:visible; opacity:0.1; fill:#fce94f; stroke-width:2.5; stroke-linecap:round;"
       id="rect66" />
    <rect
       x="-264.6"
       y="199.8"
       rx="30.7"
       ry="24.1"
       width="200.8"
       height="72.7"
       style="color:black; overflow:visible; opacity:0.1; fill:#fce94f; stroke-width:2.5; stroke-linecap:round;"
       id="rect68" />
    <text
       x="55.2"
       y="236.2"
       style="font-family:'Comic Sans MS'; font-size:29.8px; color:black; overflow:visible; fill:#204a87; stroke-width:1px;"
       id="text70">(  ) =</text>
    <text
       x="42.4"
       y="256"
       style="font-family:'Comic Sans MS'; font-size:21.3px; font-style:italic; color:black; overflow:visible; fill:#edd400; stroke-width:1px;"
       id="text72">2</text>
    <text
       x="65.7"
       y="236.1"
       style="font-family:'Comic Sans MS'; font-size:25.5px; font-style:italic; color:black; overflow:visible; fill:#729fcf; stroke-width:1px;"
       id="text74">8</text>
    <text
       x="125.7"
       y="236.7"
       style="font-family:'Comic Sans MS'; font-size:25.5px; font-style:italic; color:black; overflow:visible; fill:#c17d11; stroke-width:1px;"
       id="text76">3</text>
    <text
       x="-247.7"
       y="226.7"
       style="font-family:'Comic Sans MS'; font-size:25.5px; font-style:italic; color:black; overflow:visible; fill:#edd400; stroke-width:1px;"
       id="text78">2 x 2 x 2</text>
    <text
       x="-101.9"
       y="226.6"
       style="font-family:'Comic Sans MS'; font-size:25.5px; font-style:italic; color:black; overflow:visible; fill:#729fcf; stroke-width:1px;"
       id="text80">8</text>
    <text
       x="-126.9"
       y="226.9"
       style="font-family:'Comic Sans MS'; font-size:30.6px; color:black; overflow:visible; fill:#204a87; stroke-width:1px;"
       id="text82">=</text>
    <path
       d="m -247.6,230.2 c 0.2,0.3 0.3,0.6 0.5,0.8 0.2,0.4 0.5,0.8 0.8,1.2 0.3,0.4 0.6,0.8 1,1.1 0.4,0.4 0.8,0.7 1.3,1.1 0.4,0.4 0.9,0.7 1.4,1 0.5,0.3 1,0.6 1.5,0.9 0.6,0.3 1.2,0.5 1.8,0.8 0.7,0.3 1.4,0.4 2.1,0.6 0.8,0.2 1.7,0.4 2.6,0.5 1,0.2 2,0.2 3.1,0.3 1.1,0.1 2.2,0.2 3.3,0.2 1.1,0 2.1,0.1 3.2,0.2 1,0 2,0.1 2.9,0.1 0.9,0 1.8,0 2.7,0.1 0.8,0 1.7,0 2.5,0.1 0.8,0 1.6,0 2.4,-0 0.8,-0 1.6,-0 2.3,-0.1 0.8,-0 1.5,-0.2 2.3,-0.2 0.7,-0 1.4,-0.2 2.2,-0.3 0.7,-0.1 1.4,-0.2 2,-0.3 0.6,-0.1 1.3,-0 1.9,-0.1 0.6,-0 1.2,0.1 1.7,0.2 0.5,0 1,0.2 1.5,0.4 0.4,0.1 0.8,0.3 1.2,0.5 0.4,0.2 0.7,0.5 1.1,0.7 0.3,0.3 0.7,0.5 1,0.8 0.3,0.2 0.6,0.4 0.9,0.7 0.2,0.2 0.4,0.4 0.7,0.6 0.2,0.2 0.3,0.4 0.5,0.6 0.1,0.1 0.2,0.3 0.3,0.4 0.1,0.1 0.2,0.3 0.3,0.5 0,0.2 0.1,0.3 0.2,0.5 0,0.2 0,0.3 0.1,0.5 0,0.1 0,0.2 0,0.4 0,0 0,0.2 0,0.2 0,0 0,0.1 0,0.1 0,0 0,0 0,0 -0.2,-0.7 -1.6,0 -2.4,0.1 0,-0.2 0.1,-0.4 0.2,-0.6 0,-0.4 0.2,-0.7 0.3,-1 0.1,-0.4 0.3,-0.8 0.4,-1.2 0.1,-0.3 0.3,-0.7 0.4,-1 0.1,-0.3 0.3,-0.6 0.5,-0.9 0.1,-0.3 0.4,-0.5 0.5,-0.7 0.2,-0.3 0.5,-0.4 0.7,-0.6 0.3,-0.2 0.6,-0.3 0.9,-0.4 0.9,-0.3 1.9,-0.5 2.8,-0.7 0.3,-0 0.6,-0 0.8,-0.1 0.3,-0 0.6,-0 0.9,-0 0.3,0 0.6,0 0.9,0 0.3,0 0.6,0 0.9,0 0.3,0 0.7,0 1,0 0.4,0 0.8,0 1.2,0 0.4,0 0.8,0 1.2,0 0.4,0 0.9,0 1.3,0 0.5,0 0.9,0 1.4,0 0.5,-0 1,-0 1.5,-0 0.5,-0 1.1,-0 1.6,-0 0.6,-0 1.2,-0 1.8,-0 0.6,-0 1.1,-0 1.7,-0 0.6,-0 1.2,0 1.8,0 0.6,0 1.3,0 1.9,0 0.7,0 1.3,0 2,0 0.7,0 1.4,0 2.1,0 0.7,0 1.4,0 2.1,0 0.6,0 1.2,0 1.7,0 0.4,0 0.9,0 1.3,0 0.4,0 0.8,0 1.2,0 0.4,0 0.8,0 1.2,0 0.4,-0 0.8,-0 1.1,-0 0.4,-0 0.7,-0 1.1,-0 0.4,-0 0.7,-0 1.1,-0.1 0.4,-0 0.8,-0.1 1.2,-0.2 0.4,-0 0.8,-0.1 1.1,-0.2 0.3,-0 0.6,-0.1 0.9,-0.2 -0.3,0 -0.7,0.2 -1,0.2 0.4,-0.1 0.8,-0.3 1.2,-0.5 0.4,-0.2 0.8,-0.4 1.1,-0.5 0.3,-0.1 0.6,-0.3 0.9,-0.5 0.3,-0.2 0.6,-0.3 0.9,-0.5 0.3,-0.1 0.5,-0.3 0.7,-0.4 0.2,-0 0.4,-0.2 0.6,-0.4 0.2,-0.1 0.4,-0.3 0.6,-0.5 0.2,-0.2 0.3,-0.4 0.5,-0.6 0.2,-0.2 0.3,-0.4 0.5,-0.6 0.1,-0.2 0.2,-0.4 0.4,-0.5 0.1,-0.2 0.2,-0.4 0.3,-0.6 0,-0.2 0.1,-0.4 0.2,-0.6 0,-0.1 0,-0.3 0.1,-0.4 0,-0 0,-0.2 0,-0.3 0,-0 0,-0.1 0,-0.2 0,-0.1 0,-0.2 0,-0.3 l 2.5,0.2 c -0,-0 -0,-0.2 -0,-0 -0,0 -0,0.1 -0,0.2 -0,0 -0,0.2 -0,0.3 -0,0.1 -0,0.3 -0.1,0.4 -0,0.2 -0.1,0.4 -0.2,0.6 -0,0.2 -0.2,0.5 -0.3,0.7 -0.1,0.2 -0.2,0.5 -0.4,0.7 -0.2,0.2 -0.3,0.4 -0.5,0.6 -0.2,0.2 -0.4,0.4 -0.5,0.6 -0.2,0.2 -0.4,0.4 -0.6,0.6 -0.2,0.2 -0.4,0.4 -0.6,0.5 -0.3,0.1 -0.5,0.3 -0.8,0.4 -0.3,0.2 -0.6,0.3 -0.9,0.5 -0.3,0.2 -0.6,0.3 -0.9,0.5 -0.4,0.2 -0.8,0.4 -1.1,0.6 -0.4,0.2 -0.8,0.4 -1.2,0.6 -0.9,0.3 -1.8,1 -2.9,0.8 -0.3,0 -0.6,0.1 -1,0.2 -0.4,0 -0.8,0.1 -1.2,0.2 -0.4,0 -0.8,0.1 -1.2,0.1 -0.4,0 -0.8,0 -1.2,0 -0.4,0 -0.7,0 -1.1,0 -0.4,-0 -0.8,0 -1.2,-0 -0.4,-0 -0.8,-0 -1.2,-0 -0.4,-0 -0.8,-0 -1.2,-0 -0.4,-0 -0.9,-0 -1.3,-0 -0.6,-0 -1.2,-0 -1.8,-0 -0.7,-0 -1.4,-0 -2.1,-0 -0.7,-0 -1.4,-0 -2.1,-0 -0.7,-0 -1.3,-0 -2,-0 -0.6,-0 -1.3,-0 -1.9,-0 -0.6,0 -1.2,-0 -1.7,0 -0.6,0 -1.1,0 -1.7,0 -0.6,0 -1.2,0 -1.8,0 -0.5,0 -1.1,0 -1.6,0 -0.5,0 -1,0 -1.5,0 -0.5,-0 -1,-0 -1.4,-0 -0.4,-0 -0.9,-0 -1.3,-0 -0.4,-0 -0.8,-0 -1.2,-0 -0.4,-0 -0.8,-0 -1.2,-0 -0.3,-0 -0.7,-0 -1,-0 -0.3,-0 -0.6,-0 -0.9,-0 -0.3,0 -0.6,-0 -0.9,0 -0.3,0 -0.6,0 -0.9,0 -0.2,0 -0.5,0.1 -0.7,0.2 0.3,-0 1.4,-0.4 1,-0.3 -0.3,0 -0.6,0.1 -0.9,0.3 -0.2,0.1 -0.4,0.2 -0.6,0.3 -0.2,0.2 -0.4,0.3 -0.5,0.5 -0.2,0.3 -0.4,0.5 -0.5,0.8 -0.1,0.3 -0.3,0.6 -0.4,0.9 -0.2,0.4 -0.3,0.7 -0.5,1.1 -0.1,0.3 -0.2,0.6 -0.3,1 -0,0.2 -0.1,0.4 -0.2,0.7 -0.4,0 -2.4,1.3 -2.5,0.4 -0,-0 -0,-0 -0,-0 -0,-0 -0,-0.1 -0,-0.1 -0,-0 -0,-0.2 -0,-0.2 -0,-0.1 -0,-0.2 -0,-0.3 -0,-0.1 -0,-0.3 -0.1,-0.4 -0,-0.1 -0,-0.3 -0.1,-0.4 -0,-0.1 -0,-0.2 -0.2,-0.3 -0.1,-0.1 -0.2,-0.3 -0.3,-0.4 -0.2,-0.2 -0.3,-0.4 -0.5,-0.5 -0.2,-0.2 -0.4,-0.4 -0.6,-0.5 -0.3,-0.2 -0.6,-0.4 -0.8,-0.6 -0.3,-0.3 -0.6,-0.5 -1,-0.8 -0.3,-0.2 -0.6,-0.4 -0.9,-0.5 -0.4,-0.1 -0.7,-0.3 -1.1,-0.4 -0.5,-0 -0.9,-0.2 -1.4,-0.3 -0.5,-0 -1.1,-0.1 -1.6,-0 -0.6,0 -1.2,0 -1.8,0.2 -0.7,0 -1.3,0.2 -2,0.3 -0.7,0.1 -1.5,0.2 -2.2,0.3 -0.8,0 -1.5,0.2 -2.3,0.2 -0.8,0 -1.6,0 -2.4,0 -0.8,-0 -1.6,0 -2.4,-0 -0.8,-0 -1.7,-0 -2.5,-0.1 -0.9,-0 -1.8,-0 -2.7,-0.1 -1,-0 -2,-0.1 -2.9,-0.2 -1.1,-0 -2.1,-0.1 -3.2,-0.2 -1.1,-0 -2.2,-0.2 -3.3,-0.3 -1,-0.1 -2.1,-0.2 -3.1,-0.4 -0.9,-0.2 -1.8,-0.3 -2.7,-0.6 -0.7,-0.2 -1.5,-0.4 -2.2,-0.7 -0.6,-0.3 -1.3,-0.5 -1.9,-0.9 -0.5,-0.3 -1.1,-0.6 -1.6,-1 -0.5,-0.4 -1,-0.7 -1.4,-1.1 -0.5,-0.4 -0.9,-0.8 -1.3,-1.2 -0.3,-0.4 -0.7,-0.8 -1,-1.3 -0.3,-0.4 -0.6,-0.8 -0.8,-1.2 -0.2,-0.3 -0.3,-0.6 -0.5,-0.9 l 2.3,-0.8 z"
       style="color:black; overflow:visible; fill:#c17d11; stroke-width:2.5; stroke-linecap:round;"
       id="path84" />
    <text
       x="-206.1"
       y="267.7"
       style="font-family:'Comic Sans MS'; font-size:25.5px; font-style:italic; color:black; overflow:visible; fill:#c17d11; stroke-width:1px;"
       id="text86">3</text>
    <path
       d="m -53.4,234.6 c 4.4,-1.2 8.9,-1.6 13.5,-1.3 3.9,0.4 7.8,1.4 11.8,1.6 2.8,0.3 5.5,-0.3 8.1,-1 0.9,-0.2 2.1,-0.6 1.1,0.4 -0.4,0.5 -0.8,1 -1.2,1.4 -2.7,0.6 -5.4,1.3 -8.2,1.2 -4,-0.1 -8,-1.1 -11.9,-1.6 -3.9,-0.4 -7.9,-0 -11.8,0.7 -0.9,0 -2.5,0.7 -2.9,0.6 0.5,-0.7 1.1,-1.4 1.6,-2 z"
       style="color:black; overflow:visible; fill:#204a87; stroke-width:2.5; stroke-linecap:round;"
       id="path88" />
    <path
       d="m -27.4,230.7 c 1,1.2 2.3,2 3.8,2.3 1.4,0.2 2.8,0.7 4.2,0.4 -0.6,0.7 -1.2,1.4 -1.8,2.1 -1.8,-0 -3.6,-0.5 -5.3,-1 -1.3,-0.5 -2.8,-1.7 -3.3,-2.6 0.8,-0.4 1.5,-0.8 2.3,-1.2 z"
       style="color:black; overflow:visible; fill:#204a87; stroke-width:2.5; stroke-linecap:round;"
       id="path90" />
    <path
       d="m -29.3,241.3 c 1.1,-1.7 2.6,-3.1 4.2,-4.3 1.1,-0.9 2.1,-1.9 3.4,-2.4 0.9,0.3 1.7,0.6 2.6,0.9 -2.2,0.6 -3.6,2.5 -5.4,3.7 -0.9,0.6 -1.4,2 -2.4,2.3 -0.8,-0 -1.6,-0.2 -2.4,-0.3 z"
       style="color:black; overflow:visible; fill:#204a87; stroke-width:2.5; stroke-linecap:round;"
       id="path92" />
    <path
       d="m -55.1,235.2 c 2.5,-1.7 5.5,-2.6 8,-4.3 0.8,-0.2 1.3,-1.4 2.1,-0.9 0.7,0.2 1.3,0.4 2,0.5 -1,0.8 -2.2,1.7 -3.4,2.3 -2,1.2 -4.2,2.1 -6.2,3.1 -0.9,-0.2 -1.7,-0.5 -2.6,-0.7 z"
       style="color:black; overflow:visible; fill:#204a87; stroke-width:2.5; stroke-linecap:round;"
       id="path94" />
    <path
       d="m -52.1,234.5 c 2.6,0.6 5.2,1 7.6,2.2 1.3,0.8 2.5,1.9 3.3,3.2 -0.2,-0.4 -0.8,0.4 -1.2,0.6 -0.4,0.1 -0.9,0.9 -1.2,0.6 -1.1,-1.7 -2.8,-2.9 -4.7,-3.4 -1.9,-0.5 -3.8,-0.9 -5.8,-1.4 0.7,-0.6 1.4,-1.2 2.1,-1.8 z"
       style="color:black; overflow:visible; fill:#204a87; stroke-width:2.5; stroke-linecap:round;"
       id="path96" />
    <text
       x="7.2"
       y="236.2"
       style="font-family:'Comic Sans MS'; font-size:29.8px; font-style:italic; color:black; overflow:visible; fill:#204a87; stroke-width:1px;"
       id="text98">log </text>
    <text
       x="72.699997"
       y="285.10001"
       style="color:#000000;font-style:italic;font-size:21.3px;font-family:'Comic Sans MS';overflow:visible;fill:#edd400;stroke-width:1px"
       id="text100">底数</text>
    <path
       d="M 71.4,278.2 55.8,260.3"
       style="marker-end:url(#id01); fill:none; stroke:#edd400; stroke-width:1px;"
       id="path102" />
  </g>
</svg>
